<svg width="1090" height="935" viewBox="0 0 1090 935" fill="none" xmlns="http://www.w3.org/2000/svg">
<path d="M38.7285 99.586C38.7285 65.9751 65.9756 38.728 99.5865 38.728H990.326C1023.94 38.728 1051.18 65.9751 1051.18 99.586V835.414C1051.18 869.025 1023.94 896.272 990.326 896.272H99.5865C65.9756 896.272 38.7285 869.025 38.7285 835.414V99.586Z" fill="#3B4572"/>
<path fill-rule="evenodd" clip-rule="evenodd" d="M99.5858 0H990.326C1045.33 0 1089.91 44.5861 1089.91 99.5858V835.414C1089.91 890.414 1045.33 935 990.326 935H99.5858C44.5861 935 0 890.414 0 835.414V99.5858C0 44.5861 44.5861 0 99.5858 0ZM99.5858 38.7278C65.9749 38.7278 38.7278 65.9749 38.7278 99.5858V835.414C38.7278 869.025 65.9749 896.272 99.5858 896.272H990.326C1023.94 896.272 1051.18 869.025 1051.18 835.414V99.5858C1051.18 65.9749 1023.94 38.7278 990.326 38.7278H99.5858Z" fill="black"/>
<path d="M0 724.764C0 669.764 44.5861 625.178 99.5858 625.178H990.326C1045.33 625.178 1089.91 669.764 1089.91 724.764V835.414C1089.91 890.414 1045.33 935 990.326 935H99.5858C44.5861 935 0 890.414 0 835.414V724.764Z" fill="#61AF8F"/>
<path fill-rule="evenodd" clip-rule="evenodd" d="M990.326 663.906H99.5858C65.9749 663.906 38.7278 691.153 38.7278 724.764V835.414C38.7278 869.025 65.9749 896.272 99.5858 896.272H990.326C1023.94 896.272 1051.18 869.025 1051.18 835.414V724.764C1051.18 691.153 1023.94 663.906 990.326 663.906ZM99.5858 625.178C44.5861 625.178 0 669.764 0 724.764V835.414C0 890.414 44.5861 935 99.5858 935H990.326C1045.33 935 1089.91 890.414 1089.91 835.414V724.764C1089.91 669.764 1045.33 625.178 990.326 625.178H99.5858Z" fill="black"/>
</svg>
