<svg width="571" height="675" viewBox="0 0 571 675" fill="none" xmlns="http://www.w3.org/2000/svg">
<path d="M467.921 244.42V207.352C467.921 106.719 386.342 25.1387 285.708 25.1387C185.073 25.1387 103.494 106.719 103.494 207.352V244.42C56.1192 265.096 25.4707 311.846 25.4023 363.536V519.719C25.4878 591.565 83.7088 649.787 155.554 649.872H415.86C487.705 649.787 545.926 591.565 546.013 519.719V363.536C545.946 311.846 515.296 265.096 467.921 244.42ZM311.738 467.659C311.738 482.035 300.084 493.689 285.708 493.689C271.331 493.689 259.677 482.035 259.677 467.659V415.597C259.677 401.221 271.331 389.567 285.708 389.567C300.084 389.567 311.738 401.221 311.738 415.597V467.659ZM415.861 233.384H155.554V207.353C155.554 135.472 213.825 77.2002 285.708 77.2002C357.59 77.2002 415.861 135.471 415.861 207.353V233.384Z" fill="white"/>
<path fill-rule="evenodd" clip-rule="evenodd" d="M25.4015 519.719V363.536C25.4698 311.846 56.1183 265.096 103.493 244.42V207.352C103.493 106.719 185.072 25.1388 285.707 25.1388C386.341 25.1388 467.92 106.719 467.92 207.352V244.42C515.295 265.096 545.945 311.846 546.012 363.536V519.719C545.925 591.565 487.704 649.787 415.859 649.872H155.553C83.7079 649.787 25.4869 591.565 25.4015 519.719ZM492.91 229.047C540.77 256.414 570.929 307.529 571.001 363.503L571.001 363.536V519.749C570.898 605.372 501.512 674.76 415.888 674.862H155.524C69.8999 674.76 0.513936 605.372 0.412145 519.749L0.412109 519.719L0.412127 363.503C0.486141 307.529 30.6438 256.414 78.5038 229.047V207.352C78.5038 92.9178 171.271 0.149414 285.707 0.149414C400.143 0.149414 492.91 92.9178 492.91 207.352V229.047ZM285.707 468.7C286.282 468.7 286.748 468.234 286.748 467.659V415.597C286.748 415.022 286.282 414.556 285.707 414.556C285.132 414.556 284.666 415.022 284.666 415.597V467.659C284.666 468.234 285.132 468.7 285.707 468.7ZM180.543 208.394V207.354C180.543 149.274 227.626 102.19 285.707 102.19C343.788 102.19 390.871 149.273 390.871 207.354V208.394H180.543ZM285.707 493.689C300.083 493.689 311.737 482.035 311.737 467.659V415.597C311.737 401.221 300.083 389.567 285.707 389.567C271.331 389.567 259.677 401.221 259.677 415.597V467.659C259.677 482.035 271.331 493.689 285.707 493.689ZM415.86 233.384V207.354C415.86 135.471 357.589 77.2003 285.707 77.2003C213.825 77.2003 155.553 135.473 155.553 207.354V233.384H415.86Z" fill="black"/>
</svg>
