<svg width="851" height="851" viewBox="0 0 851 851" fill="none" xmlns="http://www.w3.org/2000/svg">
<path d="M425.499 75.7974C356.335 75.7974 288.723 96.307 231.215 134.733C173.707 173.159 128.885 227.775 102.417 291.674C75.9484 355.574 69.0231 425.888 82.5165 493.723C96.0098 561.559 129.316 623.87 178.222 672.777C227.129 721.683 289.44 754.989 357.276 768.483C425.111 781.976 495.425 775.051 559.325 748.583C623.224 722.114 677.84 677.292 716.266 619.784C754.692 562.276 775.202 494.664 775.202 425.5C775.101 332.784 738.226 243.894 672.666 178.334C607.105 112.773 518.215 75.8976 425.499 75.7974ZM454.641 421.974C454.644 426.913 453.392 431.773 451.001 436.096C448.61 440.419 445.16 444.063 440.974 446.686L329.069 516.626C325.816 518.658 322.195 520.03 318.412 520.663C314.629 521.295 310.758 521.176 307.021 520.313C303.284 519.45 299.754 517.859 296.631 515.631C293.509 513.404 290.856 510.583 288.824 507.33C286.792 504.077 285.42 500.456 284.788 496.673C284.155 492.89 284.274 489.019 285.137 485.282C286 481.545 287.591 478.015 289.819 474.892C292.047 471.77 294.867 469.117 298.12 467.085L396.358 405.829V279.79C396.358 272.062 399.428 264.649 404.893 259.184C410.358 253.719 417.77 250.649 425.499 250.649C433.228 250.649 440.641 253.719 446.106 259.184C451.571 264.649 454.641 272.062 454.641 279.79V421.974Z" fill="white"/>
<path fill-rule="evenodd" clip-rule="evenodd" d="M425.5 0H425.582C538.372 0.122034 646.508 44.9819 726.263 124.737C806.018 204.492 850.878 312.628 851 425.418L851 425.5C851 509.656 826.045 591.922 779.29 661.895C732.536 731.868 666.082 786.405 588.332 818.611C510.582 850.816 425.028 859.242 342.489 842.824C259.95 826.406 184.133 785.881 124.626 726.374C65.119 666.867 24.5941 591.05 8.17605 508.511C-8.24195 425.972 0.184361 340.418 32.3894 262.668C64.5945 184.918 119.132 118.464 189.105 71.7097C259.078 24.9551 341.344 0 425.5 0ZM396.346 405.821V279.727C396.346 271.995 399.417 264.579 404.885 259.111C410.352 253.644 417.768 250.572 425.5 250.572C433.232 250.572 440.648 253.644 446.116 259.111C451.583 264.579 454.655 271.995 454.655 279.727V421.972C454.658 426.914 453.405 431.776 451.013 436.101C448.621 440.425 445.169 444.071 440.981 446.695L329.027 516.666C329.014 516.675 329 516.684 328.986 516.692C325.743 518.711 322.134 520.074 318.366 520.704C314.581 521.337 310.709 521.219 306.97 520.355C303.231 519.491 299.699 517.9 296.576 515.671C293.452 513.442 290.798 510.62 288.765 507.366C286.732 504.112 285.36 500.489 284.727 496.704C284.094 492.92 284.213 489.047 285.076 485.309C285.94 481.57 287.532 478.038 289.76 474.914C291.986 471.794 294.805 469.142 298.055 467.11C298.051 467.112 298.058 467.108 298.055 467.11L396.346 405.821ZM775.356 425.5C775.356 494.695 754.837 562.336 716.394 619.869C677.952 677.403 623.312 722.245 559.384 748.724C495.456 775.204 425.112 782.132 357.247 768.633C289.381 755.134 227.043 721.813 178.115 672.885C129.187 623.957 95.8663 561.619 82.367 493.753C68.8678 425.888 75.7961 355.544 102.276 291.616C128.756 227.688 173.597 173.048 231.131 134.606C288.664 96.1631 356.305 75.6444 425.5 75.6444C518.257 75.7448 607.186 112.637 672.774 178.226C738.363 243.814 775.255 332.743 775.356 425.5Z" fill="black"/>
</svg>
